# xmcd
#
# Track frame offsets:
# 150
# 14920
# 27707
# 39747
# 53277
# 61380
# 74855
# 81515
# 102760
# 114370
# 128267
# 140400
# 156170
# 171172
# 194035
# 209852
# 225177
#
# Disc length: 3193 seconds
#
#
# Revision: 0
# Processed by: cddbd v1.5PL3 Copyright (c) Steve Scherf et al.
# Submitted via: FreeRIP 2.53 
#
DISCID=f90c7711
DTITLE=Irmã Míria Terezinha Kolling - Serei o Amor 
DYEAR=1996
DGENRE=Christian 
TTITLE0=Serei o Amor
TTITLE1=Senhor, Senhor
TTITLE2=Gloria
TTITLE3=Em Ti, meu Deus
TTITLE4=Aleluia
TTITLE5=Oh meu Deus
TTITLE6=Santo
TTITLE7=Tenho sede
TTITLE8=Meu ceu
TTITLE9=Teresinha de Jesus
TTITLE10=Abandono
TTITLE11=A Nossa Senhora do Sorriso
TTITLE12=Cantemos o Senhor
TTITLE13=Viver o Amor
TTITLE14=Caminho Novo
TTITLE15=Porque te amo, Maria
TTITLE16=Rosas de Amor
EXTD=intérpretes: Chorus Mutantis\nparticipação especial de Adélia Issa
EXTT0=
EXTT1=
EXTT2=
EXTT3=
EXTT4=
EXTT5=
EXTT6=
EXTT7=
EXTT8=
EXTT9=
EXTT10=
EXTT11=
EXTT12=
EXTT13=
EXTT14=
EXTT15=
EXTT16=
PLAYORDER=
